<svg width="140" height="140" viewBox="0 0 140 140" fill="none" xmlns="http://www.w3.org/2000/svg"><path d="M43.879 61.032c-9.648 0-17.5-7.852-17.5-17.5s7.852-17.5 17.5-17.5 17.5 7.852 17.5 17.5-7.852 17.5-17.5 17.5zm0-26.25c-4.824 0-8.75 3.926-8.75 8.75s3.926 8.75 8.75 8.75 8.75-3.926 8.75-8.75-3.926-8.75-8.75-8.75zm65.865 75.978c-1.47 0-2.829-.73-3.645-1.949L83.203 74.465a1.54 1.54 0 00-2.118-.432 1.53 1.53 0 00-.402.397L64.979 96.865a4.373 4.373 0 01-2.963 1.82c-.216.029-.42.046-.618.046a4.396 4.396 0 01-2.742-.962l-9.73-7.805a1.5 1.5 0 00-.94-.333c-.057 0-.116.006-.174.012a1.49 1.49 0 00-1.02.56L34.394 108.81a4.371 4.371 0 01-3.646 1.949 4.35 4.35 0 01-2.42-.73 4.382 4.382 0 01-1.22-6.066l12.315-18.498c.163-.245.344-.496.542-.74a10.186 10.186 0 016.883-3.78c.385-.041.77-.065 1.155-.065 2.34 0 4.55.782 6.394 2.258l6.09 4.882 13.02-18.602a10.253 10.253 0 012.73-2.672 10.175 10.175 0 015.676-1.715c3.459 0 6.661 1.715 8.569 4.585l22.896 34.341a4.365 4.365 0 01-1.214 6.067 4.36 4.36 0 01-2.421.735z"/></svg>