<svg xmlns="http://www.w3.org/2000/svg" width="24" height="24" viewBox="0 0 24 24"><g fill="none" stroke="#000" stroke-width="1.5"><path stroke-miterlimit="10" d="M12 23.2c6.2 0 11.2-5 11.2-11.2S18.2.8 12 .8.8 5.8.8 12s5 11.2 11.2 11.2z"/><path stroke-linecap="round" stroke-linejoin="round" d="M12 16.5c-.1 0-.1 0-.2.1-.1 0-.1.1-.1.2v.2c0 .1.1.1.1.2.1.1.1.1.2.1h.2c.1 0 .1-.1.2-.1 0-.1.1-.1.1-.2s0-.2-.1-.3c-.2-.2-.3-.2-.4-.2z"/><path stroke-linecap="round" stroke-miterlimit="10" d="M12 13.5V5.2"/></g></svg>