<svg xmlns="http://www.w3.org/2000/svg" width="24" height="24"><g fill="none" stroke="#000" stroke-width="1.5" stroke-linecap="round"><path stroke-linejoin="round" d="M13.6 1.8c-.1-.3-.4-.6-.6-.8-.3-.2-.6-.3-1-.3s-.7.1-1 .3-.5.4-.7.7L.9 21.1c-.1.2-.2.5-.2.7 0 .3.1.5.2.7s.3.4.6.5c.2.1.5.2.7.2h19.5c.3 0 .5-.1.7-.2s.4-.3.6-.5c.1-.2.2-.5.2-.7 0-.3 0-.5-.2-.7L13.6 1.8z"/><path stroke-linejoin="round" d="M12 18.8c-.1 0-.1 0-.2.1-.1 0-.1.1-.1.2v.2c0 .1.1.1.1.2.1.1.1.1.2.1h.2c.1 0 .1-.1.2-.1 0-.1.1-.1.1-.2s0-.2-.1-.3c-.2-.2-.3-.2-.4-.2z"/><path stroke-miterlimit="10" d="M12 15.8V8.2"/></g></svg>