<svg xmlns="http://www.w3.org/2000/svg" width="24" height="24" viewBox="0 0 24 24"><g fill="none" stroke="#000" stroke-width="1.5" stroke-linecap="round"><path stroke-linejoin="round" d="M1.3 13.3C1 13 .8 12.5.8 12s.2-.9.5-1.3l9.4-9.4c.2-.2.4-.3.6-.4.2-.1.5-.1.7-.1s.5 0 .7.1.4.2.6.4l9.4 9.4c.3.3.5.8.5 1.3s-.2.9-.5 1.3l-9.4 9.4c-.3.3-.8.5-1.3.5s-.9-.2-1.3-.5l-9.4-9.4z"/><path stroke-linejoin="round" d="M12 16.5c-.1 0-.1 0-.2.1-.1 0-.1.1-.1.2v.2c0 .1.1.1.1.2.1.1.1.1.2.1h.2c.1 0 .1-.1.2-.1 0-.1.1-.1.1-.2s0-.2-.1-.3c-.2-.2-.3-.2-.4-.2z"/><path stroke-miterlimit="10" d="M12 13.5V6"/></g></svg>