<svg xmlns="http://www.w3.org/2000/svg" width="22.5" height="22.5" viewBox="0 0 22.5 22.5"><circle class="bg" cx="11.2" cy="11.2" r="11.2" fill="none"/><g fill="none" stroke="#000" stroke-width="1.5"><path d="M11.2 21.8c5.8 0 10.5-4.7 10.5-10.5S17.1.8 11.2.8.8 5.4.8 11.2s4.6 10.6 10.4 10.6z" stroke-miterlimit="10"/><path d="M11.2 15.5c-.1 0-.1 0-.2.1-.1 0-.1.1-.1.2v.2c0 .1.1.1.1.2.1.1.1.1.2.1h.2c.1 0 .1-.1.2-.1 0-.1.1-.1.1-.2s0-.2-.1-.3c-.2-.2-.3-.2-.4-.2z" stroke-linecap="round" stroke-linejoin="round"/><path d="M11.2 12.7V4.9" stroke-linecap="round" stroke-miterlimit="10"/></g></svg>