<svg xmlns="http://www.w3.org/2000/svg" width="21" height="21" viewBox="0 0 21 21"><path fill="none" stroke="#000" stroke-linecap="round" stroke-linejoin="round" d="M6.4 19.6c.9.6 2 .9 3.2.9h2.9c1.3 0 2.6-.5 3.6-1.4h0c.9-.9 1.5-2.2 1.5-3.4V8.4m-8.9 0v-5C8.7 2.6 8 2 7.2 2h0c-.8 0-1.5.6-1.5 1.4v9.3l-2.4-1.9c-.3-.3-.8-.4-1.2-.3-.4.1-.8.3-1 .6h0c-.3.5-.3 1.1 0 1.6l1.4 2"/><path fill="none" stroke="#000" stroke-linecap="round" stroke-linejoin="round" d="M11.6 4.1V1.9c0-.8-.7-1.4-1.5-1.4h0c-.8 0-1.5.6-1.5 1.4v1.4m6 .1c0-.8-.7-1.4-1.5-1.4h0c-.8 0-1.5.6-1.5 1.4v2.1m8.9-3.6L.5 20.5"/></svg>