<svg xmlns="http://www.w3.org/2000/svg" width="24" height="21" viewBox="0 0 24 21"><g fill="none" stroke="#000" stroke-width="1.5" stroke-linecap="round" stroke-linejoin="round"><path d="M9.8 3.8H2.2c-.4 0-.8.2-1.1.4-.2.3-.3.7-.3 1v13.5c0 .4.2.8.4 1.1.3.3.7.4 1.1.4h19.5c.4 0 .8-.2 1.1-.4s.4-.7.4-1.1V5.2c0-.4-.2-.8-.4-1.1s-.7-.4-1.1-.4h-7.5"/><path d="M14.2 3c0-.6-.2-1.2-.7-1.6-.4-.4-1-.7-1.6-.7s-1.1.3-1.5.7c-.4.4-.6 1-.6 1.6v3c0 .2.1.4.2.5.1.1.3.2.5.2h3c.2 0 .4-.1.5-.2s.2-.3.2-.5V3zm-6 12c1.4 0 2.6-1.2 2.6-2.6S9.7 9.8 8.2 9.8 5.6 11 5.6 12.4 6.8 15 8.2 15zm-4.4 5.2c0-1.2.5-2.3 1.3-3.2.8-.8 2-1.3 3.2-1.3s2.3.5 3.2 1.3c.8.8 1.3 2 1.3 3.2h-9zm10.4-9h4.5m-4.5 3h6"/></g></svg>