<svg xmlns="http://www.w3.org/2000/svg" width="24" height="18" viewBox="0 0 24 18"><g fill="none" stroke="#000" stroke-width="1.5" stroke-linecap="round" stroke-linejoin="round"><path d="M14.2.8h-12c-.4 0-.8.2-1.1.4-.2.3-.3.7-.3 1v13.5c0 .4.2.8.4 1.1.3.3.7.4 1.1.4h19.5c.4 0 .8-.2 1.1-.4s.4-.7.4-1.1V2.2c0-.4-.2-.8-.4-1.1s-.7-.4-1.1-.4l-7.6.1h0z"/><path d="M12 11.1c1.7 0 3.1-1.4 3.1-3.1S13.7 5 12 5 8.9 6.4 8.9 8.1s1.4 3 3.1 3zm-5.2 6.1c0-1.4.6-2.7 1.5-3.7S10.6 12 12 12s2.7.6 3.7 1.5 1.5 2.3 1.5 3.7H6.8z"/></g></svg>