<svg xmlns="http://www.w3.org/2000/svg" width="22.5" height="22.5" viewBox="0 0 22.5 22.5"><path d="M11.3 0C9 0 6.8.7 5 1.9c-1.9 1.2-3.3 3-4.1 5C0 9-.2 11.3.2 13.4c.4 2.2 1.5 4.2 3.1 5.8 1.6 1.6 3.6 2.6 5.8 3.1 2.2.4 4.4.2 6.5-.6 2.1-.9 3.8-2.3 5-4.1 1.2-1.9 1.9-4 1.9-6.3 0-3-1.2-5.8-3.3-8-2.1-2.1-5-3.3-7.9-3.3zm.2 4.7c.3 0 .6.1.8.2.2.2.4.4.5.6.1.3.1.5.1.8-.1.3-.2.5-.4.7s-.4.3-.7.4-.6 0-.8-.1c-.3-.1-.5-.3-.6-.5-.2-.2-.2-.5-.2-.8 0-.4.1-.7.4-1 .2-.2.5-.3.9-.3zm2.1 12.6H9.8c-.2 0-.5-.1-.7-.3-.2-.2-.3-.4-.3-.7 0-.2.1-.5.3-.7s.4-.3.7-.3h.7c.1 0 .1 0 .2-.1 0 0 .1-.1.1-.2v-4c0-.1 0-.1-.1-.2 0 0-.1-.1-.2-.1h-.7c-.2 0-.5-.1-.7-.3-.1-.1-.2-.3-.2-.6 0-.2.1-.5.3-.7.2-.1.4-.2.6-.2h.9c.5 0 1 .2 1.3.5.4.4.5.8.5 1.3v4.5c0 .1 0 .1.1.2 0 0 .1.1.2.1h.7c.2 0 .5.1.7.3s.3.4.3.7c0 .2-.1.5-.3.7-.1 0-.4.1-.6.1z"/></svg>