<svg xmlns="http://www.w3.org/2000/svg" width="22.5" height="22.5" viewBox="0 0 22.5 22.5"><path d="M17.2 18.7H7.3c-.4 0-.7-.1-1-.4s-.5-.5-.5-.9L3.2 2c0-.4-.2-.7-.5-.9s-.6-.4-1-.4h-1" fill="none" stroke="#000" stroke-width="1.5" stroke-linecap="round" stroke-linejoin="round"/><path d="M15.4 21c-.1 0-.1 0-.2.1-.1 0-.1.1-.1.2v.2c0 .1.1.1.1.2.1.1.1.1.2.1h.2c.1 0 .1-.1.2-.1 0-.1.1-.1.1-.2s0-.2-.1-.3c-.2-.2-.3-.2-.4-.2z" stroke="#000" stroke-width="1.5" stroke-linecap="round" stroke-linejoin="round"/><path d="M7.9 21c-.1 0-.1 0-.2.1-.1 0-.1.1-.1.2v.2c0 .1.1.1.1.2.1.1.1.1.2.1h.2c.1 0 .1-.1.2-.1 0-.1.1-.1.1-.2s0-.2-.1-.3c-.2-.2-.3-.2-.4-.2m-2.6-6.8h12.1c.7 0 1.3-.2 1.8-.6.5-.4.9-1 1.1-1.6l1.5-5.8v-.3c0-.1-.1-.2-.1-.3-.1-.1-.2-.2-.3-.2-.1 0-.2-.1-.3-.1H3.8" fill="none" stroke="#000" stroke-width="1.5" stroke-linecap="round" stroke-linejoin="round"/></svg>