<svg xmlns="http://www.w3.org/2000/svg" width="22.5" height="24" viewBox="0 0 22.5 24"><path fill="none" stroke="#000" stroke-width="1.5" stroke-linecap="round" stroke-linejoin="round" d="M6.8.8v3m0 3v6m0 7.4v3m9 0v-3m0-3v-6m0-7.4v-3m0 6v1.5m-9 7.5v1.5M2.2.8h18c.8 0 1.5.7 1.5 1.5v19.5c0 .8-.7 1.5-1.5 1.5h-18c-.8 0-1.5-.7-1.5-1.5V2.2C.8 1.4 1.4.8 2.2.8zm3.8 3h1.5c.8 0 1.5.6 1.5 1.4s-.7 1.6-1.5 1.6H6c-.8 0-1.5-.7-1.5-1.5S5.2 3.8 6 3.8zm0 9h1.5c.8 0 1.5.7 1.5 1.5s-.7 1.5-1.5 1.5H6c-.8 0-1.5-.7-1.5-1.5s.7-1.5 1.5-1.5zm0 4.4h1.5c.8 0 1.5.7 1.5 1.5s-.7 1.5-1.5 1.5H6c-.8 0-1.5-.7-1.5-1.5s.7-1.5 1.5-1.5zm9 0h1.5c.8 0 1.5.7 1.5 1.5s-.7 1.5-1.5 1.5H15c-.8 0-1.5-.7-1.5-1.5s.7-1.5 1.5-1.5zm0-9h1.5c.8 0 1.5.7 1.5 1.5s-.7 1.5-1.5 1.5H15c-.8 0-1.5-.7-1.5-1.5s.7-1.5 1.5-1.5zm0-4.4h1.5c.8 0 1.5.7 1.5 1.5s-.7 1.5-1.5 1.5H15c-.8 0-1.5-.7-1.5-1.5s.7-1.5 1.5-1.5z"/></svg>