<svg xmlns="http://www.w3.org/2000/svg" width="24" height="24" viewBox="0 0 24 24"><path fill="none" stroke="#000" stroke-width="1.5" stroke-linecap="round" stroke-linejoin="round" d="M12 9.8C5.8 9.8.8 7.8.8 5.3m0 0C.8 2.8 5.8.8 12 .8s11.2 2 11.2 4.5M.8 5.3v6m22.4-6c0 1.2-1.1 2.3-3 3.1m3-3.1v3m-22.4 3c0 2 3.2 3.6 7.6 4.2M.8 11.3v6c0 2.2 3.8 4 8.8 4.4m9.9-5.9h3.8v-4.5m-.2 4.5c-.3-1.3-1.1-2.5-2.2-3.3-1.1-.8-2.4-1.2-3.8-1.2s-2.7.5-3.7 1.4c-1 .9-1.8 2-2 3.4-.3 1.3-.1 2.7.5 3.9.6 1.2 1.6 2.2 2.8 2.8 1.2.6 2.6.7 3.9.4s2.5-1 3.3-2.1"/></svg>