<svg xmlns="http://www.w3.org/2000/svg" width="24" height="24" viewBox="0 0 24 24"><path fill="none" stroke="#000" stroke-width="1.5" stroke-linecap="round" stroke-linejoin="round" d="M12 9.8C5.8 9.8.8 7.8.8 5.3m0 0C.8 2.8 5.8.8 12 .8s11.2 2 11.2 4.5M.8 5.3v6m22.4-6c0 1.1-1.1 2.2-2.8 3m2.8-3v4.5M.8 11.3c0 2.1 3.5 3.8 8.2 4.3M.8 11.3v6c0 2.1 3.5 3.8 8.2 4.3m9.8-5.1c0 .8-.7 1.5-1.5 1.5s-1.5-.7-1.5-1.5.7-1.5 1.5-1.5 1.5.7 1.5 1.5zm-.3-5.8l.4 1.5c.1.2.2.4.5.6.2.1.5.2.7.1l1.5-.3c.3-.1.6 0 .8.1.3.1.5.3.6.6.1.2.2.5.2.8 0 .3-.2.6-.4.8l-1 1.1c-.2.2-.3.4-.3.7 0 .3.1.5.3.7l1 1.1c.2.2.3.5.3.8 0 .3 0 .6-.2.8-.1.2-.4.4-.6.6-.3.1-.6.1-.8.1l-1.5-.3c-.2-.1-.5 0-.7.1-.2.1-.4.3-.5.6l-.4 1.4c-.1.3-.3.5-.5.7s-.5.3-.8.3-.6-.1-.8-.3-.4-.4-.5-.7l-.4-1.5c-.1-.2-.2-.4-.5-.6-.2-.1-.5-.2-.7-.1l-1.5.3c-.3.1-.6 0-.8-.1-.3-.1-.5-.3-.6-.6-.1-.2-.2-.5-.2-.8 0-.3.2-.6.3-.8l1-1.1c.2-.2.3-.4.3-.7 0-.3-.1-.5-.3-.7l-1-1.1c-.2-.2-.3-.5-.4-.8 0-.3 0-.6.2-.8.1-.2.4-.4.6-.6.3-.1.6-.1.8-.1l1.5.3c.2.1.5 0 .7-.1.2-.1.4-.3.5-.6l.4-1.5c.1-.3.3-.5.5-.7.2-.2.5-.3.8-.3.3 0 .6.1.8.3.5.3.6.5.7.8z"/></svg>