<svg xmlns="http://www.w3.org/2000/svg" width="24" height="24" viewBox="0 0 24 24"><path fill="none" stroke="#000" stroke-width="1.5" stroke-linecap="round" stroke-linejoin="round" d="M18.8 12.1V6c0-.4-.2-.8-.4-1.1s-.7-.4-1.1-.4h-4.5m0 0v-.7c0-.2-.1-.4-.2-.5-.2-.2-.4-.3-.6-.3H7.5c-.2 0-.4.1-.5.2-.2.2-.2.4-.2.6v.8m6-.1c0 .4-.2.8-.4 1.1-.4.2-.8.4-1.2.4h-3c-.3 0-.7-.2-1-.4s-.4-.7-.4-1.1m0 0H2.2c-.4 0-.8.2-1.1.4-.2.3-.3.7-.3 1.1v9c0 .4.2.8.4 1.1.3.3.7.4 1.1.4h4.5m-.8 0l-2.2 5.2M9.8.8V3m0 14.1v3.8m3-2.7v3.1c0 .2 0 .3.1.4l.3.3 3 1.2c.2.1.4.1.6 0l3-1.2c.1-.1.3-.2.3-.3.1-.1.1-.3.1-.4v-3.1m-3.7-3.9l-6.8 2.8 6.8 2.5 6.8-2.5-6.8-2.8z"/></svg>