<svg xmlns="http://www.w3.org/2000/svg" width="24" height="24" viewBox="0 0 24 24"><path fill="none" stroke="#000" stroke-width="1.5" stroke-linecap="round" stroke-linejoin="round" d="M23.2 6.8c0 1.2-.4 2.3-1 3.3-.7 1-1.6 1.8-2.7 2.2-1.1.5-2.3.6-3.5.3-1.2-.2-2.2-.8-3.1-1.6-.8-.8-1.4-1.9-1.6-3.1-.2-1.2-.1-2.4.3-3.5.5-1.1 1.2-2 2.2-2.7s2.1-1 3.3-1m6.1 1.5l-5.5 5.5c-.1.1-.2.1-.2.2-.1 0-.2.1-.3.1s-.2 0-.3-.1c-.1 0-.2-.1-.2-.2L15 6M6 23.2h12m-17.2-6h22.5m-22.5 0c0 .8.3 1.6.9 2.1.6.6 1.3.9 2.1.9h16.5c.8 0 1.6-.3 2.1-.9.6-.6.9-1.3.9-2.1m-22.5 0V6.8c0-.8.3-1.6.9-2.1s1.3-.9 2.1-.9h4.5m14.9 13.4v-3m-7.4 9H8.2l.8-3h6l.8 3z"/></svg>