<svg xmlns="http://www.w3.org/2000/svg" width="24" height="20.2" viewBox="0 0 24 20.2"><path fill="none" stroke="#000" stroke-width="1.5" stroke-linecap="round" stroke-linejoin="round" d="M8 9.6l2.3-2.3M16 9.6l-2.3-2.3M2.2 15V2.2c0-.4.2-.8.4-1.1.4-.2.8-.3 1.2-.3h16.5c.4 0 .8.2 1.1.4.3.3.4.7.4 1.1V15m-7.6-9c0 1.2-1 2.3-2.2 2.3S9.8 7.2 9.8 6s1-2.3 2.2-2.3 2.2 1.1 2.2 2.3zm-6 4.5c0 .8-.7 1.5-1.5 1.5s-1.5-.7-1.5-1.5S5.9 9 6.8 9s1.4.7 1.4 1.5zm10.6 0c0 .8-.7 1.5-1.5 1.5s-1.5-.7-1.5-1.5.7-1.5 1.5-1.5 1.5.7 1.5 1.5zM14.6 15c-.3.5-.6.8-1.1 1.1-.5.3-1 .4-1.5.4s-1-.1-1.5-.4c-.5-.3-.8-.6-1.1-1.1H.8v1.5c0 .8.3 1.6.9 2.1.6.6 1.3.9 2.1.9h16.5c.8 0 1.6-.3 2.1-.9.6-.6.9-1.3.9-2.1V15h-8.7z"/></svg>