<svg xmlns="http://www.w3.org/2000/svg" width="24" height="24" viewBox="0 0 24 24"><path fill="none" stroke="#000" stroke-width="1.5" stroke-linecap="round" stroke-linejoin="round" d="M15.7 4.1v4l-3 .9-3-.9v-4M6.7 3l6-2.3 6 2.3-6 2.2-6-2.2zm0 0v3m13.5-.7v9c0 .4-.2.8-.4 1.1-.3.3-.7.4-1.1.4H5.2c-.4 0-.8-.2-1.1-.4-.3-.3-.4-.7-.4-1.1v-9m6.8 15h3m8.2 3H2.3c-.3 0-.5-.1-.7-.2-.2-.1-.4-.3-.5-.5-.1-.2-.2-.5-.2-.7 0-.3 0-.5.2-.7l1.8-3.7c.2-.5.6-.9 1.1-1.2.5-.3 1-.4 1.6-.4h13.1c.6 0 1.1.2 1.6.4.5.3.9.7 1.1 1.2l1.8 3.7c.1.2.2.5.2.7 0 .3-.1.5-.2.7-.1.2-.3.4-.5.5-.4.1-.7.2-1 .2z"/></svg>