<svg xmlns="http://www.w3.org/2000/svg" width="24" height="24" viewBox="0 0 24 24"><path fill="none" stroke="#000" stroke-width="1.5" stroke-linecap="round" stroke-linejoin="round" d="M20.2 5.3v9c0 .4-.2.8-.4 1.1-.3.3-.7.4-1.1.4H5.2c-.4 0-.8-.2-1.1-.4-.3-.3-.4-.7-.4-1.1v-9m6.8 15h3M12 2.4S12.5.9 16.6.7h.2c.1 0 .2.1.2.1l.2.2c0 .1.1.2.1.2v6.2c0 .2-.1.3-.2.4-.1.1-.3.2-.4.2-4.2.2-4.7 1.8-4.7 1.8m0-7.4v7.3m0-7.3S11.5.9 7.4.7h-.2S7 .8 7 .9l-.2.2c0 .1-.1.2-.1.2v6.2c0 .2.1.3.2.4.2.1.3.2.5.2 4.1.1 4.6 1.7 4.6 1.7m9.7 13.5H2.2c-.3 0-.5-.1-.7-.2-.2-.1-.4-.3-.5-.5-.1-.2-.2-.5-.2-.7 0-.3 0-.5.2-.7l1.8-3.7c.2-.5.6-.9 1.1-1.2.5-.3 1-.4 1.6-.4h13.1c.6 0 1.1.2 1.6.4.5.3.9.7 1.1 1.2l1.8 3.7c.1.2.2.5.2.7 0 .3-.1.5-.2.7-.1.2-.3.4-.5.5-.3.1-.6.2-.9.2z"/></svg>