<svg xmlns="http://www.w3.org/2000/svg" width="24" height="24" viewBox="0 0 24 24"><path fill="none" stroke="#000" stroke-width="1.5" stroke-linecap="round" stroke-linejoin="round" d="M3.8 9c-.8 0-1.6.3-2.2.9-.6.6-.9 1.3-.9 2.1v3c0 .8.3 1.6.9 2.1.6.6 1.4.9 2.2.9h.8c.2 0 .4-.1.5-.2.1-.1.2-.3.2-.5V9.8c0-.2-.1-.4-.2-.5-.2-.2-.4-.3-.6-.3h-.7zm0 0c0-2.2.9-4.3 2.4-5.8C7.7 1.6 9.8.8 12 .8c2.2 0 4.3.9 5.8 2.4s2.4 3.6 2.4 5.8m0 9h-.8c-.2 0-.4-.1-.5-.2-.1-.1-.2-.3-.2-.5V9.8c0-.2.1-.4.2-.5.2-.2.4-.3.6-.3h.8m-.1 9c.8 0 1.6-.3 2.1-.9.6-.6.9-1.3.9-2.1v-3c0-.8-.3-1.6-.9-2.1-.5-.6-1.3-.9-2.1-.9m0 9v.8c0 .8-.3 1.6-.9 2.1-.6.6-1.3.9-2.1.9H15m0 0c0-.4-.2-.8-.4-1.1-.3-.3-.7-.4-1.1-.4H12c-.4 0-.8.2-1.1.4-.3.3-.4.7-.4 1.1s.2.8.4 1.1c.3.3.7.4 1.1.4h1.5c.4 0 .8-.2 1.1-.4.2-.4.4-.8.4-1.1zm-6-6.4c.8.7 1.9 1.2 3 1.2s2.2-.4 3-1.2M9 10v1.3m6-1.3v1.3"/></svg>