<svg xmlns="http://www.w3.org/2000/svg" width="22.5" height="24" viewBox="0 0 22.5 24"><path fill="none" stroke="#000" stroke-width="1.5" stroke-linecap="round" stroke-linejoin="round" d="M3 18.7c.1-1.7.8-3.2 2-4.4a6.1 6.1 0 014.5-1.6H13c1.7-.1 3.3.5 4.5 1.6 1.2 1.1 2 2.7 2 4.4M3 18.7c-1.2 0-2.2 1-2.2 2.2 0 1.2 1 2.2 2.2 2.2s2.2-1 2.2-2.2c0-1.1-1-2.2-2.2-2.2zm16.5 0c-1.2 0-2.2 1-2.2 2.2 0 1.2 1 2.2 2.2 2.2s2.2-1 2.2-2.2c.1-1.1-1-2.2-2.2-2.2zM11.2 6.8v12m0-12c1.7 0 3-1.3 3-3s-1.3-3-3-3-3 1.3-3 3c0 1.6 1.4 3 3 3zm0 11.9C10 18.7 9 19.8 9 21c0 1.2 1 2.2 2.2 2.2s2.2-1 2.2-2.2c.1-1.2-.9-2.3-2.2-2.3z"/></svg>