<svg xmlns="http://www.w3.org/2000/svg" width="24" height="24" viewBox="0 0 24 24"><path fill="none" stroke="#000" stroke-width="1.5" stroke-linecap="round" stroke-linejoin="round" d="M13.5 14.2c2.1 0 3.8-1.7 3.8-3.8 0-2.1-1.7-3.7-3.8-3.7s-3.8 1.7-3.8 3.7c.1 2.2 1.7 3.8 3.8 3.8zm0 0v4.5m0 0c-1.2 0-2.2 1-2.2 2.2 0 1.2 1 2.2 2.2 2.2s2.2-1 2.2-2.2c.1-1.1-1-2.2-2.2-2.2zm2.7-10.8l3.3-3.3m-2.7 7.7l2.3 2.3m-8.2-1.5l-6.3 6.3M10 9.2L5.6 6.5M23.2 3c0 1.2-1 2.3-2.2 2.3s-2.2-1-2.2-2.3S19.8.7 21 .7s2.2 1.1 2.2 2.3zm0 12.7c0 1.2-1 2.2-2.2 2.2s-2.2-1-2.2-2.2c0-1.2 1-2.2 2.2-2.2s2.2 1 2.2 2.2zM5.2 21c0 1.2-1 2.2-2.2 2.2S.8 22.2.8 21c0-1.2 1-2.2 2.2-2.2s2.2 1 2.2 2.2zM6 5.3c0 1.2-1 2.2-2.2 2.2s-2.2-1-2.2-2.2S2.5 3 3.8 3 6 4 6 5.3z"/></svg>