<svg xmlns="http://www.w3.org/2000/svg" width="24" height="24" viewBox="0 0 24 24"><path fill="none" stroke="#000" stroke-width="1.5" stroke-linecap="round" stroke-linejoin="round" d="M10.5 11.2h3M.8 21.8h9.8m-.1 0c0 .8.7 1.5 1.5 1.5s1.5-.7 1.5-1.5m-3 0c0-.8.7-1.5 1.5-1.5m1.5 1.5h9.8m-9.8 0c0-.8-.7-1.5-1.5-1.5m0-3.1v3m6-6H6c-.2 0-.5-.1-.7-.2-.2-.1-.4-.3-.5-.5-.1-.2-.2-.4-.3-.7 0-.2 0-.5.1-.7l1-3c.1-.3.3-.5.5-.7.3-.1.6-.1.9-.2h10c.3 0 .6.1.9.3.3.2.4.4.5.7l1 3c.1.2.1.5.1.7 0 .2-.1.5-.3.7-.1.2-.3.4-.5.5-.2.1-.5.1-.7.1zM7.5.8h9c.8 0 1.5.7 1.5 1.5v4.5c0 .8-.7 1.5-1.5 1.5h-9C6.7 8.2 6 7.6 6 6.8V2.2C6 1.4 6.7.8 7.5.8z"/></svg>