<svg xmlns="http://www.w3.org/2000/svg" width="24" height="24" viewBox="0 0 24 24"><path fill="none" stroke="#000" stroke-width="1.5" stroke-linecap="round" stroke-linejoin="round" d="M6.8 23.3h10.5m5.9-7.5v-12c0-1.7-1.3-3-3-3H3.8c-1.7 0-3 1.3-3 3v12m22.4 0c0 1.7-1.3 3-3 3H3.8c-1.7 0-3-1.3-3-3m22.4 0H.8m0-4.5l4-4c0-.1.1-.1.2-.2.1 0 .2-.1.3-.1.1 0 .2 0 .3.1.1 0 .2.1.2.2l1.9 1.9c.1.1.2.1.3.2.1 0 .2.1.3.1.1 0 .2 0 .3-.1.1 0 .2-.1.2-.2l4-4m1.4 4.5V12m6-2.3V12m-3-4.5V12M15 23.3H9l.8-4.5h4.5l.7 4.5z"/></svg>