<svg xmlns="http://www.w3.org/2000/svg" width="24" height="24" viewBox="0 0 24 24"><path fill="none" stroke="#000" stroke-width="1.5" stroke-linecap="round" stroke-linejoin="round" d="M14.2 16.1v-2.2c.4 0 .8-.2 1.1-.4.3-.3.4-.7.4-1.1v-1.5c0-.8-.3-1.6-.9-2.1-.6-.6-1.3-.9-2.1-.9h-1.5c-.8 0-1.6.3-2.1.9-.6.6-.9 1.3-.9 2.1v1.5c0 .4.2.8.4 1.1.3.3.7.4 1.1.4v2.2M.8 20.2c3.5 1.9 7.3 2.9 11.2 3 3.9-.1 7.8-1.1 11.2-3M3 17.2c2.8 1.3 5.9 2.1 9 2.2 3.1-.1 6.2-.9 9-2.2M14.6 3.4C14.6 4.8 13.4 6 12 6S9.4 4.8 9.4 3.4 10.6.8 12 .8s2.6 1.1 2.6 2.6z"/></svg>