<svg xmlns="http://www.w3.org/2000/svg" width="20.3" height="24" viewBox="0 0 20.3 24"><path fill="none" stroke="#000" stroke-width="1.5" stroke-linecap="round" stroke-linejoin="round" d="M3 19.3v1c0 .2 0 .4.2.5.1.2.3.3.4.3l6.9 2.1m0 .1v-8.8m0 8.8l6.9-2.1c.2-.1.3-.2.4-.3.1-.2.2-.3.1-.5v-1.2m-7.4-4.8L4 12h-.4c-.1 0-.3.1-.4.2-.1.1-.2.2-.2.3v2.2m7.5-.3L17 12h.4c.1 0 .3.1.4.2.1.1.2.2.2.3 0 .1.1.3.1.4v2M4.5 18.4c0 .5-.6.9-1.3.9-1.4 0-2.5-.8-2.5-1.8v-.9c0-1 1.1-1.8 2.5-1.8.7 0 1.2.4 1.2.9l.1 2.7zm11.3 0c0 .5.6.9 1.3.9 1.4 0 2.5-.8 2.5-1.8v-.9c0-1-1.1-1.8-2.5-1.8-.7 0-1.2.4-1.2.9l-.1 2.7zM14.6 4.9c0 2.3-1.8 4.1-4.1 4.1S6.4 7.2 6.4 4.9 8.2.8 10.5.8s4.1 1.8 4.1 4.1z"/></svg>