<svg xmlns="http://www.w3.org/2000/svg" width="22.6" height="23.6" viewBox="0 0 22.6 23.6"><path fill="none" stroke="#000" stroke-width="1.5" stroke-linecap="round" stroke-linejoin="round" d="M17.7 8.9l-3.8-6.7c-.3-.5-.6-.8-1.1-1.1-.5-.3-1-.4-1.5-.4s-1 .1-1.5.4c-.5.3-.8.7-1.1 1.2L7.6 4.1m3.7 15.7h7.6c.5 0 1-.1 1.5-.4.5-.3.8-.6 1.1-1.1.3-.5.4-1 .4-1.5s-.1-1-.4-1.5l-1.3-2.2M5 8.6l-3.8 6.8c-.3.5-.4 1-.4 1.5s.1 1 .4 1.5c.3.5.6.8 1.1 1.1.5.3 1 .4 1.5.4h3.1M5 8.6L.9 9.7M5 8.6l1 4.1m8.3 4.1l-3 3 3 3m4.5-18l-1.1 4.1-4.1-1.1"/></svg>