<svg xmlns="http://www.w3.org/2000/svg" width="24" height="24" viewBox="0 0 24 24"><g fill="none" stroke="#000" stroke-width="1.5" stroke-linecap="round" stroke-linejoin="round"><path d="M12 14.2c1.2 0 2.2-1 2.2-2.2 0-1.2-1-2.3-2.2-2.3-1.2 0-2.2 1-2.2 2.3-.1 1.2.9 2.2 2.2 2.2z"/><path d="M15.7 15.7c5.9-5.9 8.9-12.3 6.9-14.3-2.1-2.1-8.5 1-14.3 6.9-5.9 5.9-8.9 12.3-6.9 14.3s8.4-1 14.3-6.9z"/><path d="M22.6 22.6c2.1-2.1-1-8.5-6.9-14.3C9.8 2.4 3.4-.7 1.4 1.4c-2.1 2.1 1 8.5 6.9 14.3 5.8 5.9 12.2 8.9 14.3 6.9z"/></g></svg>