<svg xmlns="http://www.w3.org/2000/svg" width="24" height="24" viewBox="0 0 24 24"><path fill="none" stroke="#000" stroke-width="1.5" stroke-linecap="round" stroke-linejoin="round" d="M5.4 13.5C9.5 14.8 12 17.3 12 22m0 0v1.3m0-1.3c0-4.7 2.5-7.2 6.6-8.5M12 22V6M9.7 6c-.1 0-.2 0-.3-.1-.1 0-.2-.1-.2-.2s-.1-.2-.1-.3c0-.1 0-.2.1-.3L11.5 1c0-.1.1-.2.2-.2s.2-.1.3-.1.2 0 .3.1.2.1.2.2l2.4 4.2c0 .1.1.2.1.3 0 .1 0 .2-.1.3s-.1.2-.2.2h-5zm-3.3 5v-.3c0-.1-.1-.2-.1-.3l-.2-.2h-.3l-4.6.6c-.1.1-.2.1-.2.2l-.2.2v.3c0 .1 0 .2.1.3l2.8 3.7.2.2c.1 0 .2.1.3 0 .1 0 .2-.1.3-.1l.2-.2.9-2.2.8-2.2zm11.2 0v-.3c0-.1.1-.2.1-.3l.2-.2h.3l4.6.6c.1 0 .2.1.3.1l.2.2c.1.1 0 .2 0 .3 0 .1 0 .2-.1.3l-2.8 3.7-.2.2c-.1 0-.2.1-.3 0-.1 0-.2-.1-.3-.1l-.2-.2-.9-2.2-.9-2.1z"/></svg>