<svg xmlns="http://www.w3.org/2000/svg" width="24" height="24" viewBox="0 0 24 24"><path fill="none" stroke="#000" stroke-width="1.5" stroke-linecap="round" stroke-linejoin="round" d="M8.2 23.2c-.4-.7-.9-1.2-1.6-1.6-.6-.4-1.3-.6-2.1-.6s-1.5.2-2.2.6c-.7.4-1.2 1-1.6 1.6m22.5 0c-.4-.7-.9-1.2-1.6-1.6-.6-.4-1.3-.6-2.1-.6s-1.5.2-2.2.6c-.7.4-1.2 1-1.6 1.6m-.5-15c-.4-.5-.9-.8-1.5-1.1-.6-.3-1.2-.4-1.8-.4s-1.2.1-1.8.4c-.5.3-1 .7-1.4 1.1m.4 11.5c1.9.7 4 .7 5.9 0M6.3 6c-.8.8-1.4 1.7-1.9 2.7-.4 1.1-.7 2.2-.7 3.3v.8m16.5 0V12c0-1.1-.2-2.2-.7-3.3-.4-1-1.1-2-1.9-2.7M7.1 17.6c0 1.4-1.2 2.6-2.6 2.6-1.4 0-2.6-1.2-2.6-2.6S3.1 15 4.5 15c1.4 0 2.6 1.2 2.6 2.6zm15 0c0 1.4-1.2 2.6-2.6 2.6-1.4 0-2.6-1.2-2.6-2.6s1.2-2.6 2.6-2.6c1.4 0 2.6 1.2 2.6 2.6zM14.6 3.4C14.6 4.8 13.4 6 12 6c-1.4 0-2.6-1.2-2.6-2.6S10.6.8 12 .8c1.4 0 2.6 1.1 2.6 2.6z"/></svg>