<svg xmlns="http://www.w3.org/2000/svg" width="24" height="24" viewBox="0 0 24 24"><path fill="none" stroke="#000" stroke-width="1.5" stroke-linecap="round" stroke-linejoin="round" d="M12 1.8c-1.1-.7-2.4-1-3.8-1s-2.6.3-3.8 1c-1 .6-2 1.6-2.6 2.7-.7 1.1-1 2.4-1 3.8m15 0c0-1-.2-2.1-.6-3m-7 18c.5 0 1-.1 1.5-.1M.8 12.8v3c0 1.5.4 2.9 1.2 4.1.8 1.2 1.9 2.2 3.3 2.8m7.5-12.9V8.3c0-.8-.2-1.6-.6-2.3-.4-.7-1-1.3-1.6-1.6-.8-.4-1.6-.6-2.3-.6S6.7 4 6 4.4M3.8 8.3v7.5c0 1.2.5 2.3 1.3 3.2.8.8 2 1.3 3.2 1.3M9.8 12V8.3c0-.4-.2-.8-.4-1.1-.4-.3-.8-.4-1.2-.4-.4 0-.8.2-1.1.4-.2.3-.3.7-.3 1.1v3m0 4.5c0 .4.2.8.4 1.1s.7.4 1.1.4m11.6-1.8L17 19.4c-.1.1-.1.2-.2.2-.1.1-.2.1-.3.1h-.3c-.1 0-.2-.1-.3-.2L14.4 18m8.8-.7c0 3.3-2.7 6-6 6s-6-2.7-6-6 2.7-6 6-6 6 2.6 6 6z"/></svg>